<?xml version="1.0" encoding="utf-8"?>
<!-- Generator: Adobe Illustrator 24.0.2, SVG Export Plug-In . SVG Version: 6.00 Build 0)  -->
<svg version="1.1" xmlns="http://www.w3.org/2000/svg" xmlns:xlink="http://www.w3.org/1999/xlink" x="0px" y="0px"
	 viewBox="0 0 595.28 841.89" style="enable-background:new 0 0 595.28 841.89;" xml:space="preserve">
<g id="Capa_2">
	<path style="fill:#FCE0D2;" d="M190.96,172.91c0,59.93-30.73,108.52-73.38,108.52s-73.41-48.59-73.41-108.52
		c0-27.65-3.64-60.97,3.01-82.03c7.98-25.24,47.43-26.49,70.4-26.49c25.2,0,60.52-5.43,64.28,23.61
		C188.68,140.86,190.96,148.38,190.96,172.91z"/>
	<path style="fill:#3A3938;" d="M190.45,184.72c-2.95-0.33-3.08,19.56-6.98,33c-3.93,13.52-11.63,20.6-16.06,19.35
		c-4.48-1.27-2.64-9.76-8.95-17.07c-9.98-11.54-28.82-23.32-37.73-23.32c-0.73,0-1.46,0.01-2.18,0.05
		c-0.72-0.04-1.45-0.05-2.17-0.05c-8.91,0-27.76,11.79-37.73,23.32c-6.31,7.32-4.47,15.8-8.95,17.07
		c-4.4,1.25-12.42-9.31-16.33-22.76c-3.93-13.51-3.75-29.92-6.71-29.59c-5.93,0.67-2.43,35.88-2.6,42.68
		c-0.46,18.77,36.98,90.27,73.85,90.46c0.22,0,0.44,0,0.66-0.01c0.21,0.01,0.43,0.01,0.65,0.01c36.87-0.19,74.31-71.7,73.85-90.46
		C192.89,220.6,196.38,185.38,190.45,184.72z M125.06,251.29c-1.19,0-2.37-0.06-3.52-0.17c-0.24-0.02-0.47-0.04-0.71-0.07
		c-0.23,0.03-0.47,0.05-0.7,0.07c-1.15,0.11-2.33,0.17-3.52,0.17c-13.94,0-27.49,1.43-27.49-12.51c0-13.95,13.55-27.32,27.49-27.32
		c1.19,0,2.37,0.04,3.52,0.11c0.24,0.01,0.47,0.03,0.7,0.05c0.24-0.02,0.47-0.04,0.71-0.05c1.15-0.07,2.33-0.11,3.52-0.11
		c13.94,0,27.5,13.37,27.5,27.32C152.56,252.71,139.01,251.29,125.06,251.29z"/>
	<path style="fill:#3A3938;" d="M121.55,211.56v0.11c-0.24-0.02-0.47-0.04-0.71-0.06C121.07,211.59,121.31,211.58,121.55,211.56z"/>
	<path style="fill:#3A3938;" d="M121.55,250.96v0.16c-0.24-0.02-0.47-0.04-0.71-0.07C121.07,251.03,121.31,250.99,121.55,250.96z"/>
	<path style="fill:#3A3938;" d="M120.84,251.05c-0.23,0.03-0.47,0.05-0.7,0.07v-0.16C120.37,250.99,120.6,251.02,120.84,251.05z"/>
	<path style="fill:#3A3938;" d="M120.84,211.61c-0.24,0.01-0.47,0.04-0.7,0.06v-0.11C120.37,211.58,120.61,211.59,120.84,211.61z"/>
	<path d="M184.13,85.15c0.79,6.88,6.81,66.12,2.88,66c0,0-6.85-51.69-22.23-68.28s-43.81-8.53-55.19-8.53
		c-4.88,0-38.36,1.85-51.28,23.06c-15.05,24.69-11.15,60.1-15.14,60.1c-2.92,0-4.02-50.38-4.02-69.51
		c0-29.69,62.94-62.59,92.64-62.59c14.17,0,15.62,17.82,29.02,26.17C180.72,63.99,181.86,65.24,184.13,85.15z"/>
	<path d="M56.15,135.3c0,3.07,14.09-1.63,21.76-1.07c10.93,0.79,21.76,0.83,21.76-2.24c0-3.07-8-3.2-21.76-3.2
		C66.96,128.79,56.15,132.24,56.15,135.3z"/>
	<path d="M174.32,135.21c0,3.07-14.09-1.63-21.76-1.07c-10.93,0.79-21.76,0.83-21.76-2.24c0-3.07,8-3.2,21.76-3.2
		C163.52,128.7,174.32,132.15,174.32,135.21z"/>
</g>
<g id="Capa_3">
	<path style="fill:#FCE0D2;" d="M380.13,189.07c0,69.41-34.14,108.47-83.53,108.47s-76.83-46.85-81.98-103.51
		c-3.01-33.08,0.84-65.68,8.55-90.06c9.24-29.23,48.05-36.6,74.66-36.6c29.18,0,59.01,4.44,69.54,26.62
		C388.23,137.9,380.13,160.66,380.13,189.07z"/>
	<path style="fill:#3F3F3E;" d="M370.62,80.78c4.1,7.79,8.47,15.54,11.69,32.05c5.12,26.25,1.53,58.8-3.09,56.95
		c0,0,3.04-47.01-12.1-69.76c-5.46-8.2-13.53-20.73-22.31-23.51c-18.76-5.93-28.49,5.28-47.13,5.22
		c-22.03-0.06-27.63-10.05-46.12-6.04c-10.14,2.2-17.29,13.61-22.85,21.62c-18.51,26.69-8.87,74.32-12.76,74.32
		c-2.36,0-9.41-32.66-2.36-60.45c4.49-17.72,12.29-26.32,16.38-32.9c0,0,3.58-6.09,12.94-12.79c6.77-4.85,9.61-5.26,9.61-5.26
		s-0.3-4.59,9.12-8.59c9.8-4.16,14.67-2.48,15.22-2.72c0,0,2.96-6.34,19.56-6.34c14.76,0,19.3,4.71,19.3,4.71s4.86-2.78,15.47,0.68
		c11.27,3.67,12.49,9.14,12.49,9.14s5.39,2.14,12.73,7.77C367.35,73.25,369.17,78.01,370.62,80.78z"/>
	<path d="M386.02,142.97c-1.3-2.87-27.39-6.62-39.13-6.62c-11.29,0-36.92,0.26-38.18,4.19c-0.13,0.38-0.23,0.84-0.33,1.37
		c-3.85,0.83-7.15,1-10.71,1c-3.44,0-7.85-0.69-10.79-1.17c-0.09-0.45-0.19-0.85-0.3-1.2c-1.26-3.93-26.9-4.19-38.18-4.19
		c-11.75,0-37.83,3.75-39.13,6.62c-0.25,0.53,0.05,7.18,0.73,8.18c0.2,0.3,1.47,0.06,2.18,1.63c1.45,3.21,2.77,9.58,3.28,12.86
		c2.36,14.89,6.46,20.2,7.85,21.44c2.41,2.14,14.66,2.09,24.56,2.09c9.36,0,25.37-2.17,28.53-3.41c3.83-1.51,6.42-12.55,8.88-18.82
		c1.4-3.56,2.15-10.71,2.18-16.86c2.62-2.58,7.64-1.82,10.23-1.82c3.85,0,7.31-0.07,10.18,1.09c-0.02,6.31,0.73,13.89,2.18,17.59
		c2.47,6.28,5.05,17.32,8.88,18.82c3.16,1.24,19.17,3.41,28.53,3.41c9.9,0,22.14,0.04,24.56-2.09c1.39-1.24,5.49-6.55,7.85-21.44
		c0.51-3.28,1.83-9.64,3.28-12.86c0.7-1.57,1.98-1.33,2.18-1.63C385.97,150.14,386.26,143.5,386.02,142.97z M280.39,166.38
		c-2.15,5.46-4.39,15.04-7.72,16.35c-2.74,1.08-16.64,2.95-24.76,2.95c-8.6,0-19.23,0.04-21.32-1.82
		c-1.21-1.07-4.76-5.68-6.81-18.61c-0.44-2.84-1.54-15.2-0.95-19.36c0.4-2.71,19.36-6.06,29.55-6.06c9.8,0,32.05,0.22,33.14,3.63
		C282.83,147.58,282.39,161.28,280.39,166.38z M375.5,165.25c-2.05,12.93-5.61,17.54-6.81,18.61c-2.09,1.86-12.73,1.82-21.32,1.82
		c-8.13,0-22.02-1.87-24.76-2.95c-3.33-1.3-5.57-10.89-7.72-16.35c-2-5.1-2.45-18.8-1.13-22.92c1.09-3.41,23.34-3.63,33.14-3.63
		c10.2,0,29.16,3.35,29.55,6.06C377.04,150.05,375.94,162.41,375.5,165.25z"/>
	<path d="M224.67,132.32c0,4.14,17.41-2.2,26.89-1.45c13.51,1.07,26.89,1.12,26.89-3.02c0-4.14-9.89-4.32-26.89-4.32
		C238.02,123.53,224.67,128.18,224.67,132.32z"/>
	<path d="M370.31,124.67c-0.33,4.13-17.18-3.58-26.69-3.59c-13.55-0.01-26.9-1.04-26.57-5.16c0.33-4.13,10.2-3.52,27.15-2.16
		C357.71,114.85,370.64,120.55,370.31,124.67z"/>
</g>
<g id="Capa_5">
	<path style="fill:#FEEBD7;" d="M562.22,176.82c0,18.89-8.62,55.22-13.88,71.02c-5.87,17.62-44.86,46.46-71.02,46.46
		c-20.1,0-53.93-30.44-60.34-55c-1.81-6.92-2.7-20.03-3.84-30.86c-1.19-11.32-2.57-20.42-2.57-30.55c0-28.93,1.81-72.04,14.42-92.38
		c13.74-22.16,37.53-28.76,57.67-28.76c21.83,0,54.59,3.03,68.46,28.14C561.79,104.22,562.22,150.52,562.22,176.82z"/>
	<path style="stroke:#12170F;stroke-width:0.25;stroke-miterlimit:10;" d="M423.73,129.82c0,1.96,8-4.16,22.4-2.65
		c12.48,1.31,23.63,4.37,23.63-2.08c0-8-8.52-6.78-24.27-6.78C432.94,118.32,423.73,125.99,423.73,129.82z"/>
	<path style="stroke:#12170F;stroke-width:0.25;stroke-miterlimit:10;" d="M551.55,131.63c0,1.96-8-4.16-22.4-2.65
		c-12.48,1.31-23.63,4.37-23.63-2.08c0-8,8.52-6.78,24.27-6.78C542.34,120.12,551.55,127.79,551.55,131.63z"/>
	<path style="stroke:#12170F;stroke-width:0.25;stroke-miterlimit:10;" d="M562.22,168.89c0-3.86,6.08-28.75,6.15-56.81
		c0.02-8.12,0.2-24.12-3.68-29.59c-2.82-3.96,9.6-23.42-13.14-40.48c-16.76-12.57-49.29-11.89-61.85-11.89
		c-11.8,0-55.2,10.55-70.78,30.59c-11.89,15.29-7.29,24.41-8.36,27.16c-14.39,36.82,0.05,75.94,0.05,81.76
		c0,4.05,0.25-14.95,5.39-36.1c1.65-6.77,5.42-11.19,7.73-18.49c2.28-7.21-0.49-18.76,3.32-24.88
		c12.39-19.88,44.19-21.82,59.34-21.82c15.81,0,45.49,0.7,57.71,19.53c4.37,6.73,3.06,18.77,5.53,27.17
		c2.18,7.38,6.79,12.65,8.38,19.48C562.78,154.99,562.22,172.66,562.22,168.89z"/>
</g>
</svg>
